<!-- Generator: Adobe Illustrator 24.0.1, SVG Export Plug-In  -->
<svg version="1.1" xmlns="http://www.w3.org/2000/svg" xmlns:xlink="http://www.w3.org/1999/xlink" x="0px" y="0px" width="144px"
	 height="144px" viewBox="0 0 144 144" style="enable-background:new 0 0 144 144;" xml:space="preserve">
<style type="text/css">
	.st0{fill:#D6214C;}
</style>
<defs>
</defs>
<g>
	<path class="st0" d="M78.08,65.92c1.17,1.18,1.17,3.07,0,4.24c-1.18,1.18-3.07,1.18-4.25,0c-1.17-1.17-1.17-3.06,0-4.24
		C75.01,64.75,76.9,64.75,78.08,65.92z"/>
	<path class="st0" d="M90.1,53.9c1.95,1.95,1.95,5.12,0,7.07c-1.95,1.95-5.12,1.95-7.07,0c-1.96-1.95-1.96-5.12,0-7.07
		C84.98,51.95,88.15,51.95,90.1,53.9z"/>
	<path class="st0" d="M72,0C32.24,0,0,32.24,0,72s32.24,72,72,72s72-32.24,72-72S111.76,0,72,0z M71.73,93.37
		c-3.73,3.52-12.11,9.12-27.68,9.22c-1.45,0.01-2.65-1.19-2.64-2.64c0.1-15.57,5.7-23.95,9.22-27.68c1.4-1.48,3.75-1.48,5.19-0.05
		l0.28,0.28c1.45,1.45,1.67,3.75,0.48,5.41c-2.3,3.19-2.97,7.25-3.14,9.9c-0.1,1.56,1.19,2.85,2.75,2.75
		c2.65-0.17,6.7-0.84,9.9-3.14c1.66-1.19,3.96-0.97,5.41,0.48l0.23,0.23C73.21,89.62,73.21,91.97,71.73,93.37z M89.87,74.08
		c-0.3,0.21-0.51,0.51-0.59,0.86c-0.45,2.05-2.4,9.49-7.41,12.58c-1.69,1.03-3.9,0.54-5-1.11c-0.72-1.09-0.92-2.81-2.2-5.19
		c-0.12-0.22-0.31-0.37-0.54-0.29c-1.25,0.43-5.03,1.47-7.37-0.87L65.7,79c0,0-0.35-0.35-1.77-1.76c-2.33-2.34-1.29-6.12-0.86-7.37
		c0.09-0.23-0.08-0.42-0.3-0.54c-2.37-1.29-4.1-1.48-5.18-2.2c-1.65-1.1-2.14-3.32-1.11-5c3.09-5.01,10.53-6.96,12.58-7.42
		c0.35-0.07,0.65-0.28,0.86-0.58c8.8-12.68,23.22-13.08,29.33-12.6c1.73,0.13,3.09,1.5,3.22,3.22
		C102.95,50.86,102.55,65.28,89.87,74.08z"/>
</g>
</svg>
