<!-- Generator: Adobe Illustrator 24.0.1, SVG Export Plug-In  -->
<svg version="1.1" xmlns="http://www.w3.org/2000/svg" xmlns:xlink="http://www.w3.org/1999/xlink" x="0px" y="0px" width="61.18px"
	 height="61.18px" viewBox="0 0 61.18 61.18" style="enable-background:new 0 0 61.18 61.18;" xml:space="preserve">
<style type="text/css">
	.st0{fill:#D6214C;}
</style>
<defs>
</defs>
<path class="st0" d="M47.87,33.53c0.08-0.35,0.29-0.64,0.59-0.86c12.68-8.8,13.08-23.22,12.6-29.33c-0.13-1.73-1.49-3.09-3.22-3.22
	c-6.1-0.47-20.53-0.08-29.33,12.6c-0.21,0.3-0.51,0.51-0.86,0.59c-2.05,0.45-9.49,2.4-12.58,7.42c-1.03,1.68-0.54,3.9,1.11,5
	c1.08,0.71,2.81,0.91,5.18,2.2c0.22,0.12,0.38,0.31,0.3,0.54c-0.43,1.25-1.47,5.03,0.86,7.37c1.41,1.41,1.77,1.77,1.77,1.77
	l1.06,1.06c2.33,2.33,6.12,1.29,7.37,0.86c0.23-0.08,0.42,0.08,0.54,0.3c1.29,2.38,1.48,4.1,2.21,5.19c1.1,1.65,3.31,2.14,4.99,1.1
	C45.47,43.02,47.42,35.58,47.87,33.53z M32.42,28.75c-1.17-1.17-1.17-3.07,0-4.24c1.17-1.17,3.07-1.17,4.24,0
	c1.17,1.17,1.17,3.07,0,4.24C35.49,29.93,33.6,29.93,32.42,28.75z M41.62,19.56c-1.95-1.95-1.95-5.12,0-7.07s5.12-1.95,7.07,0
	s1.95,5.12,0,7.07S43.57,21.51,41.62,19.56z"/>
<path class="st0" d="M0,58.54c0.1-15.56,5.7-23.94,9.22-27.68c1.4-1.48,3.75-1.48,5.19-0.05l0.28,0.28
	c1.45,1.45,1.68,3.75,0.48,5.41c-2.3,3.19-2.96,7.25-3.13,9.9c-0.1,1.55,1.19,2.84,2.74,2.74c2.65-0.17,6.71-0.84,9.9-3.13
	c1.66-1.2,3.96-0.97,5.41,0.48l0.23,0.23c1.49,1.49,1.48,3.84,0,5.24c-3.73,3.52-12.11,9.13-27.68,9.22
	C1.19,61.19-0.01,59.99,0,58.54z"/>
</svg>
