<!-- Generator: Adobe Illustrator 24.0.1, SVG Export Plug-In  -->
<svg version="1.1" xmlns="http://www.w3.org/2000/svg" xmlns:xlink="http://www.w3.org/1999/xlink" x="0px" y="0px" width="30.51px"
	 height="60px" viewBox="0 0 30.51 60" style="enable-background:new 0 0 30.51 60;" xml:space="preserve">
<defs>
</defs>
<g>
	<path d="M30.51,14.87c0,0.25,0,0.5-0.01,0.75c-0.16,4.43-2.1,8.95-3.9,12.77c-2.39,5.07-5.29,9.88-8.4,14.52
		c-0.11,0.17-0.24,0.33-0.38,0.47c-0.59,0.76-1.51,1.25-2.55,1.25c-1.04,0-1.96-0.49-2.55-1.25c-0.14-0.14-0.27-0.3-0.38-0.47
		c-3.11-4.63-6.01-9.45-8.4-14.52c-1.8-3.82-3.75-8.34-3.91-12.77C0,15.37,0,15.12,0,14.87c0.02-1.41,0.22-2.82,0.69-4.18
		c0.26-0.76,0.57-1.47,0.94-2.14C1.64,8.54,1.65,8.52,1.66,8.5C4.11,3.47,9.28,0,15.25,0c5.96,0,11.11,3.45,13.57,8.46
		c0.39,0.7,0.73,1.44,0.99,2.24C30.28,12.06,30.49,13.46,30.51,14.87z"/>
	<circle cx="15.25" cy="54.26" r="5.74"/>
</g>
</svg>
