<!-- Generator: Adobe Illustrator 24.0.1, SVG Export Plug-In  -->
<svg version="1.1" xmlns="http://www.w3.org/2000/svg" xmlns:xlink="http://www.w3.org/1999/xlink" x="0px" y="0px"
	 width="146.11px" height="148.65px" viewBox="0 0 146.11 148.65" style="enable-background:new 0 0 146.11 148.65;"
	 xml:space="preserve">
<defs>
</defs>
<path d="M120.09,17.91L93.73,4.82C80.81-1.59,65.64-1.61,52.7,4.77L26.12,17.88C10.12,25.77,0,42.06,0,59.9v66.56
	c0,12.23,9.91,22.15,22.14,22.15h14.14c12.24,0,22.15-9.92,22.15-22.15v-2.29c0-8.02,6.5-14.53,14.52-14.54h0.04
	c8.03,0,14.55,6.53,14.53,14.58l-0.01,2.2c-0.03,12.23,9.86,22.17,22.09,22.2l14.14,0.04c12.24,0.03,22.18-9.87,22.21-22.1
	l0.16-66.56C146.16,42.15,136.07,25.84,120.09,17.91z M47.05,77.52c-7.51,0-13.6-6.09-13.6-13.6s6.09-13.6,13.6-13.6
	c7.51,0,13.6,6.09,13.6,13.6S54.56,77.52,47.05,77.52z"/>
</svg>
