<!-- Generator: Adobe Illustrator 24.0.1, SVG Export Plug-In  -->
<svg version="1.1" xmlns="http://www.w3.org/2000/svg" xmlns:xlink="http://www.w3.org/1999/xlink" x="0px" y="0px" width="48.92px"
	 height="67.61px" viewBox="0 0 48.92 67.61" style="enable-background:new 0 0 48.92 67.61;" xml:space="preserve">
<defs>
</defs>
<g>
	<path d="M48.65,20.86c-1.48-9.36-6.53-14.6-11.63-17.53c-7.74-4.44-17.38-4.44-25.12,0C6.79,6.26,1.74,11.5,0.27,20.86
		c-2.68,16.97,15.14,38.39,21.77,45.68c1.3,1.43,3.54,1.43,4.84,0C33.51,59.25,51.33,37.83,48.65,20.86z M24.46,32.61
		c-3.87,0-7-3.13-7-7s3.13-7,7-7c3.86,0,7,3.13,7,7S28.32,32.61,24.46,32.61z"/>
</g>
</svg>
