<!-- Generator: Adobe Illustrator 24.0.1, SVG Export Plug-In  -->
<svg version="1.1" xmlns="http://www.w3.org/2000/svg" xmlns:xlink="http://www.w3.org/1999/xlink" x="0px" y="0px" width="21.45px"
	 height="22.8px" viewBox="0 0 21.45 22.8" style="enable-background:new 0 0 21.45 22.8;" xml:space="preserve">
<defs>
</defs>
<g>
	<path d="M16.12,0H5.34C2.39,0,0,2.39,0,5.34v9.16c0,2.95,2.39,5.34,5.34,5.34h1.79c0.28,0,0.54,0.12,0.72,0.33l1.84,2.15
		c0.54,0.63,1.52,0.63,2.06,0l1.84-2.15c0.18-0.21,0.44-0.33,0.72-0.33h1.79c2.95,0,5.34-2.39,5.34-5.34V5.34
		C21.45,2.39,19.06,0,16.12,0z M11.46,12.35l-3.62,0c-0.41,0-0.78-0.27-0.86-0.67c-0.11-0.55,0.3-1.03,0.83-1.03h3.62
		c0.41,0,0.78,0.27,0.86,0.67C12.4,11.87,11.98,12.35,11.46,12.35z M13.64,9.43H7.83c-0.41,0-0.78-0.27-0.86-0.67
		c-0.11-0.55,0.3-1.03,0.83-1.03l5.81,0c0.41,0,0.78,0.27,0.86,0.67C14.59,8.95,14.17,9.43,13.64,9.43z"/>
</g>
</svg>
