<!-- Generator: Adobe Illustrator 24.0.1, SVG Export Plug-In  -->
<svg version="1.1" xmlns="http://www.w3.org/2000/svg" xmlns:xlink="http://www.w3.org/1999/xlink" x="0px" y="0px" width="252px"
	 height="248px" viewBox="0 0 252 248" style="enable-background:new 0 0 252 248;" xml:space="preserve">
<defs>
</defs>
<g>
	<path d="M249.24,205.95c-9.92,31.62-43.59,49.2-75.2,39.28c-21.84-6.85-36.98-25.04-40.99-46.05
		c-2.09-10.98-9.88-20.01-20.43-23.72l-5.86-2.06c-10.05-3.54-21.17-1.69-29.64,4.76c-15.29,11.65-36.77,13.41-54.15,2.77
		C0.35,167.11-6.77,137.57,7.06,114.95c10.53-17.22,30.17-25.46,48.92-22.3c10.46,1.76,21.1-1.98,28.28-9.79l8.52-9.26
		c6.6-7.18,9.54-17.02,7.84-26.63c-1.93-10.91,0.65-22.56,8.1-31.9c13.76-17.28,38.93-20.13,56.21-6.37
		c17.28,13.76,20.13,38.93,6.37,56.21c-8.72,10.95-22.03,16.11-35,14.91c-9.7-0.9-19.25,2.86-25.85,10.03l-8.57,9.32
		c-7.2,7.82-9.93,18.75-7.32,29.05c0.03,0.1,0.05,0.2,0.08,0.31c2.54,10.32,10.07,18.69,20.1,22.23l3.27,1.15
		c11.2,3.94,23.69,1.27,32.21-6.98c15.29-14.82,38.01-21.01,59.75-14.18C241.57,140.66,259.16,174.33,249.24,205.95z"/>
</g>
</svg>
